<svg width="180" height="180" viewBox="0 0 180 180" fill="none" xmlns="http://www.w3.org/2000/svg">
<circle cx="90" cy="90" r="90" fill="black"/>
<path d="M39.9811 86.4165H32L38.2708 56.6814H55.8463L54.4838 63.1289H44.9008L43.7208 68.8012H52.5911L51.2059 75.2887H42.2785L39.9811 86.4165Z" fill="white"/>
<path d="M68.5134 80.8412H59.3922L56.8496 86.4165H48.6006L63.7475 56.6814H74.0089L76.5115 86.4165H68.7186L68.5134 80.8412ZM62.3109 74.4963H68.2682L67.9205 65.871L67.8806 64.1266C67.8806 63.1061 67.8806 62.2168 67.9604 61.4586C67.6404 62.6153 67.2267 63.744 66.7233 64.8335L62.3109 74.4963Z" fill="white"/>
<path d="M95.6718 77.2839C95.6718 80.2939 94.6741 82.637 92.6789 84.313C90.6836 85.989 87.9035 86.8251 84.3387 86.8213C82.9137 86.8293 81.4932 86.6628 80.1087 86.3253C78.8942 86.0389 77.7374 85.5473 76.6883 84.8717V77.7514C77.9163 78.5106 79.2312 79.1193 80.6047 79.5642C81.8881 80.0161 83.2349 80.2624 84.5952 80.2939C85.4054 80.3508 86.2105 80.1274 86.8755 79.6612C87.1343 79.4433 87.3387 79.1681 87.4723 78.8573C87.6059 78.5465 87.6651 78.2088 87.6451 77.8711C87.6481 77.5142 87.5639 77.162 87.4 76.845C87.2162 76.4966 86.984 76.1761 86.7102 75.893C86.4138 75.5737 85.61 74.8725 84.3102 73.7837C82.9098 72.7237 81.7336 71.3964 80.8498 69.8787C80.1279 68.5353 79.7572 67.0312 79.7724 65.5062C79.7407 63.8121 80.2031 62.1455 81.1031 60.7099C82.0031 59.2744 83.3017 58.1321 84.8403 57.4225C86.5449 56.6339 88.4068 56.244 90.2846 56.2823C93.3385 56.2365 96.3519 56.9849 99.0295 58.4543L96.2818 64.4971C93.9749 63.2962 92.0062 62.6957 90.3758 62.6957C89.6615 62.6516 88.9535 62.8527 88.3691 63.2658C88.1374 63.4713 87.9558 63.7271 87.8382 64.0137C87.7206 64.3003 87.6701 64.6099 87.6907 64.919C87.6971 65.5989 87.9388 66.2556 88.3748 66.7774C89.1499 67.6337 90.0201 68.3988 90.9687 69.0577C92.3898 70.0501 93.5991 71.3156 94.5259 72.7803C95.3163 74.147 95.7129 75.7057 95.6718 77.2839V77.2839Z" fill="white"/>
<path d="M107.945 86.4165H99.9929L104.793 63.2658H98.3625L99.7706 56.6985H120.681L119.233 63.2658H112.774L107.945 86.4165Z" fill="white"/>
<path d="M56.7983 103.034C56.7983 106.455 55.6354 109.136 53.3094 111.078C50.9835 113.02 47.8006 113.995 43.7607 114.003H42.0105L39.9811 123.865H32L38.2708 94.124H45.8985C49.4101 94.124 52.1047 94.8936 53.9821 96.4328C55.8596 97.972 56.7983 100.172 56.7983 103.034ZM43.4357 107.492H44.7184C45.272 107.514 45.8241 107.42 46.3387 107.214C46.8534 107.009 47.3191 106.698 47.7056 106.301C48.0868 105.898 48.384 105.424 48.5798 104.905C48.7756 104.386 48.866 103.834 48.8457 103.279C48.8606 102.925 48.8037 102.571 48.6783 102.239C48.5529 101.906 48.3616 101.603 48.1161 101.347C47.8474 101.095 47.5306 100.901 47.1847 100.776C46.8388 100.65 46.471 100.596 46.1037 100.617H44.9008L43.4357 107.492Z" fill="white"/>
<path d="M80.5135 105.372C80.5952 108.774 79.9073 112.151 78.5011 115.251C77.2533 117.932 75.2114 120.165 72.6521 121.647C69.876 123.181 66.7412 123.946 63.5708 123.865H53.9878L60.2587 94.124H68.7186C72.4621 94.124 75.36 95.1045 77.4122 97.0656C79.4645 99.0266 80.4983 101.795 80.5135 105.372ZM64.768 117.275C66.2244 117.284 67.6376 116.78 68.7585 115.85C70.0215 114.769 70.9673 113.367 71.4949 111.791C72.1784 109.863 72.5105 107.827 72.4754 105.782C72.4754 104.072 72.1048 102.801 71.3751 101.928C70.9977 101.489 70.5243 101.142 69.9915 100.915C69.4587 100.687 68.8808 100.586 68.3024 100.617H66.8601L63.3599 117.275H64.768Z" fill="white"/>
<path d="M98.1858 94.124H106.606L91.858 123.865H82.9933L80.8783 94.124H88.6427L89.2128 110.417V111.454C89.2264 113.197 89.1178 114.938 88.8879 116.665H89.0475C89.2413 115.793 89.5378 114.727 89.9539 113.461C90.2723 112.452 90.6531 111.464 91.0941 110.502L98.1858 94.124Z" fill="white"/>
<path d="M140.138 77.797L147.11 84.2845C146.35 80.2521 145.601 76.2217 144.864 72.1932L142.053 70.1808C144.833 62.3138 144.504 53.6826 141.135 46.0495C139.551 47.1887 137.678 47.8585 135.731 47.982C133.305 48.1043 130.911 47.3809 128.958 45.9355C127.214 49.7038 126.237 53.7815 126.083 57.9312C125.929 62.0808 126.603 66.2196 128.063 70.1067L125.048 72.0392L122.995 84.4441L130.11 77.9566C130.315 78.6749 130.526 79.3989 130.737 80.1172L139.442 80.0602C139.676 79.3134 139.915 78.5552 140.138 77.797Z" fill="#E6332A"/>
<path d="M134.916 38L129.34 45.5079C131 46.6517 132.971 47.257 134.986 47.2417C137.002 47.2264 138.963 46.5912 140.605 45.4224L134.916 38Z" fill="#E6332A"/>
<path d="M137.418 90.7092C136.146 92.6328 135.474 94.8906 135.486 97.1967C134.517 96.0068 133.845 94.6039 133.525 93.1035C133.339 92.2253 133.281 91.3247 133.354 90.4299C133.077 90.6949 132.759 90.9142 132.413 91.0798C132.055 91.2566 131.669 91.3722 131.273 91.4218C131.424 91.0362 131.538 90.6373 131.615 90.2304C131.67 89.9574 131.708 89.6813 131.729 89.4038L130.623 89.7173C130.623 89.1472 130.623 88.2693 130.68 87.2147C130.666 86.4213 130.733 85.6286 130.88 84.8488C131.095 84.1737 131.472 83.5613 131.978 83.0646C132.483 82.568 133.102 82.202 133.781 81.9985C134.468 81.8363 135.182 81.8369 135.868 82.0002C136.554 82.1635 137.192 82.485 137.732 82.9391C138.237 83.3749 138.644 83.9114 138.929 84.5143C139.214 85.1171 139.369 85.7729 139.385 86.4394C139.385 87.6251 138.906 88.0071 138.673 89.8598C138.575 90.6426 138.556 91.4333 138.616 92.2199C138.199 91.7183 137.806 91.1995 137.418 90.7092Z" fill="#E6332A"/>
<path d="M137.39 92.961C136.573 94.8333 136.101 96.8381 135.999 98.8784C134.31 96.897 133.042 94.5928 132.271 92.1059H130.082C130.124 95.8728 129.741 99.6324 128.941 103.314C127.967 107.794 125.071 121.282 112.814 130.968C101.219 140.123 88.3292 140.289 84.3102 140.18C86.3741 140.626 88.4717 140.899 90.581 140.996C101.156 141.463 109.137 137.324 112.004 135.785C126.593 127.981 132.487 114.003 135.007 108.011C136.972 103.336 138.385 98.4477 139.22 93.4456L137.39 92.961Z" fill="#E6332A"/>
</svg>
