<svg width="137" height="137" viewBox="0 0 137 137" fill="none" xmlns="http://www.w3.org/2000/svg">
<path fill-rule="evenodd" clip-rule="evenodd" d="M71.35 47.12C70.43 46.96 67.52 46.75 66.58 46.67L66.57 46.44C76.8 46.37 84.05 46.12 90.66 48.59C90.8 48.64 91.81 49.09 92.05 49.21C92.88 49.64 93.96 50.2 94.97 50.84C96.66 51.9 98.36 53.42 98.73 53.8C102.21 57.39 105.26 64.09 107.6 69.8C107.61 69.83 109.53 74.76 110.72 77.79C110.83 78.07 111.24 79.01 111.61 79.86C111.91 80.54 112.95 82.4 113.28 82.85C114.43 84.43 115.92 85.8 117.94 86.66C118.29 86.81 118.78 86.95 119.31 87.08C121.47 81.23 122.64 74.9 122.64 68.3C122.64 38.28 98.31 13.93 68.29 13.93C46.05 13.93 26.93 27.29 18.52 46.42C22.75 46.44 29.24 46.52 32.51 46.83C33.4 46.92 34.25 47.04 35.09 47.19C39.8 48.05 43.94 50.01 47.03 52.68C50.44 55.62 52.3 59.44 54.41 63.62C58.73 72.23 61.89 82.13 64.29 89.89H50.28C50.09 89.48 44.29 70.59 40.2 63C36.32 55.29 30.75 48.96 21.06 47.19C20.52 47.09 19.44 47 18.31 46.92C15.5 53.48 13.95 60.7 13.95 68.29C13.95 98.31 38.28 122.65 68.3 122.65C90.64 122.65 109.83 109.17 118.19 89.9L101.1 89.89C95.62 75.87 91.96 50.9 71.35 47.12ZM89.75 89.9H75.73C75.55 89.49 69.74 70.6 65.66 63.01C61.78 55.3 56.21 48.97 46.52 47.2C44.86 46.91 43.23 46.77 41.55 46.66V46.43C46.92 46.39 52.67 46.35 57.98 46.84C58.87 46.93 59.72 47.05 60.56 47.2C65.28 48.06 69.41 50.02 72.51 52.68C75.92 55.62 77.78 59.44 79.89 63.62C84.2 72.24 87.35 82.15 89.75 89.9ZM136.6 68.31C136.6 106.04 106.02 136.62 68.3 136.62C30.58 136.62 0 106.04 0 68.31C0 30.58 30.58 0 68.3 0C106.03 0 136.6 30.58 136.6 68.31Z" fill="#E7363B"/>
</svg>
