<?xml version="1.0" encoding="UTF-8"?><svg id="Layer_2" xmlns="http://www.w3.org/2000/svg" viewBox="0 0 229.44 224.89"><defs><style>.cls-1{fill:#0071bc;}.cls-2{fill:#0b0146;}</style></defs><g id="Layer_1-2"><g><path class="cls-1" d="M27.47,89.18v-15.58H94.33c8.34,0,13-4.66,13-11.65,0-7.61-4.66-11.53-13-11.53H53.36c-16.81,0-27.23-10.67-27.23-25.39S35.81,0,53.6,0H117.64V15.58H53.6c-7.11,0-11.29,4.17-11.29,10.92s4.29,10.79,11.16,10.79h40.85c18.03,0,27.72,8.46,27.72,25.76,0,14.97-9.08,26.13-27.72,26.13H27.47Z"/><path class="cls-2" d="M196.8,39.99h-62.69v49.19h-2.99c-5.43,.41-10.93,3.04-15.35,7.45l-10.96,11.07,10.51,10.36,7.91-9.34c2.55-2.55,5.62-4.11,8.44-4.38h2.44v24.83h15.46v-24.83l11.41,.05h35.82c20.61,0,32.63-13.25,32.63-32.51s-12.02-31.9-32.63-31.9Zm0,49.32l-47.23-.12V55.57h47.23c10.92,0,17.42,6.5,17.42,16.81s-6.5,16.93-17.42,16.93ZM40.91,137.64L2.33,176.11c-3.06,3.06-3.15,8.3,0,12.06l31.24,31.13c3.55,3.55,8.21,5.59,13.15,5.59,4.95,0,9.71-2.04,13.26-5.59l30.69-30.8-46.92-46.92c-1.16-1.16-2.08-2.55-2.85-3.95Zm15.35,24.34c-10.26,11.03-9.36,24.42-9.32,24.99,.15,1.84,1.7,3.29,3.51,3.29,.1,0,.23,.01,.33,0,1.93-.16,3.34-1.9,3.18-3.84-.01-.11-.81-11.47,8.11-20.39,.14-.14,.22-.29,.33-.44l9.76,9.87c2.11,2.11,2.11,5.23,0,7.34l-18.85,18.96c-3.51,3.86-9.54,3.84-13.04,.33l-14.36-14.36c-2.11-2.11-2.11-5.23,0-7.34l15.13-15.13c2.81-2.81,6.49-4.17,10.3-4.17,1.66,0,3.34,.36,4.93,.88Zm53.49-25.76l-1.64-1.64,1.75-5.37,.11-.44c.63-3.12-.22-6.25-2.3-8.33l-9.54-9.54c-1.73-1.71-3.99-2.63-6.25-2.63-.96,0-1.85,.16-2.52,.44l-5.37,1.75-.88-.99c-2.86-2.86-6.69-4.28-10.52-4.28s-7.77,1.41-10.63,4.28l-13.26,13.37c-1.85,1.85-2.85,4.33-2.85,6.91s1,4.95,2.85,6.8l47.03,47.03c1.85,1.85,4.3,2.85,6.91,2.85s4.96-.93,7.13-2.85l3.18-3.18c2.26-2.26,3.71-5.33,4.17-8.99v-.55l-3.18-23.13c.34-4.45-1.07-8.43-4.17-11.51Z"/></g></g></svg>