<?xml version="1.0" encoding="UTF-8"?><svg id="Layer_2" xmlns="http://www.w3.org/2000/svg" viewBox="0 0 349.14 34.37"><defs><style>.cls-1{fill:#0071bc;}.cls-2{fill:#0b0146;}</style></defs><g id="Layer_1-2"><g><path class="cls-2" d="M206.55,19.12v-4.32h10.25c3.12,0,4.98-1.96,4.98-4.84s-1.86-4.81-4.98-4.81h-13.51V26.21h-4.42V.7h17.93c5.9,0,9.33,3.54,9.33,9.12s-3.44,9.3-9.33,9.3h-10.25Z"/><path class="cls-2" d="M240.93,26.21c-7.12,0-12.39-5.61-12.39-13.02s5.26-12.49,12.39-12.49h6.21c7.37,0,12.49,5.09,12.49,12.49s-5.23,13.02-12.49,13.02h-6.21Zm6.21-4.46c4.7,0,8.04-3.54,8.04-8.35s-3.33-8.25-8.04-8.25h-6.21c-4.56,0-7.93,3.4-7.93,8.25s3.33,8.35,7.93,8.35h6.21Z"/><path class="cls-2" d="M263.25,26.21v-4.46h19.12c2.39,0,3.72-1.33,3.72-3.33,0-2.18-1.33-3.3-3.72-3.3h-11.72c-4.81,0-7.79-3.05-7.79-7.26s2.77-7.16,7.86-7.16h18.32V5.16h-18.32c-2.04,0-3.23,1.19-3.23,3.12s1.23,3.09,3.19,3.09h11.68c5.16,0,7.93,2.42,7.93,7.37,0,4.28-2.6,7.47-7.93,7.47h-19.12Z"/><path class="cls-2" d="M302.3,26.21V5.16h-9.68V.7h23.83V5.16h-9.68V26.21h-4.46Z"/><path class="cls-2" d="M330.44,26.21c-7.12,0-12.39-5.61-12.39-13.02s5.26-12.49,12.39-12.49h6.21c7.37,0,12.49,5.09,12.49,12.49s-5.23,13.02-12.49,13.02h-6.21Zm6.21-4.46c4.7,0,8.04-3.54,8.04-8.35s-3.33-8.25-8.04-8.25h-6.21c-4.56,0-7.93,3.4-7.93,8.25s3.33,8.35,7.93,8.35h6.21Z"/><path class="cls-1" d="M.39,25.86v-4.46H19.51c2.39,0,3.72-1.33,3.72-3.33,0-2.18-1.33-3.3-3.72-3.3H7.79C2.98,14.77,0,11.72,0,7.51S2.77,.35,7.86,.35H26.18V4.81H7.86c-2.04,0-3.23,1.19-3.23,3.12s1.23,3.09,3.19,3.09h11.68c5.16,0,7.93,2.42,7.93,7.37,0,4.28-2.6,7.47-7.93,7.47H.39Z"/><path class="cls-1" d="M62.03,25.86l-4.88-17.93-7.23,16.6c-.49,1.09-1.19,1.68-2.28,1.68s-1.82-.6-2.28-1.68l-7.19-16.6-4.88,17.93h-4.39L35.47,1.86c.32-1.23,1.02-1.82,2.21-1.82,.95,0,1.82,.53,2.25,1.51l7.86,18.04L55.65,1.54c.42-.98,1.19-1.51,2.14-1.51,1.09,0,1.79,.6,2.14,1.82l6.53,24h-4.42Z"/><path class="cls-1" d="M96,25.86l-11.65-19.58-11.58,19.58h-5.09L82.35,1.44c.53-.88,1.19-1.44,2.18-1.44s1.61,.56,2.14,1.44l14.7,24.42h-5.37Z"/><path class="cls-1" d="M127.79,25.86l-6.46-7.09h-9.54v-3.93h10.63c3.19,0,4.88-1.82,4.88-5.12s-1.82-4.91-4.88-4.91h-13.89V25.86h-4.42V.35h18.32c5.82,0,9.26,3.61,9.26,9.3,0,4.21-1.96,7.19-5.26,8.46l7.68,7.75h-6.32Z"/><circle class="cls-2" cx="84.52" cy="16.72" r="2.21"/><path class="cls-2" d="M191.03,.7c-1.35,.1-2.71,.75-3.81,1.85l-2.72,2.75,2.61,2.57,1.96-2.32c.63-.63,1.39-1.02,2.09-1.09h7.7s0-3.76,0-3.76h-7.83Zm-14.52,3.97c-.95,0-1.93,.35-2.64,1.06l-3.29,3.32c-.46,.46-.71,1.07-.71,1.71s.25,1.23,.71,1.69l11.67,11.67c.46,.46,1.07,.71,1.71,.71s1.23-.23,1.77-.71l.79-.79c.56-.56,.92-1.32,1.03-2.23v-.14s-.79-5.74-.79-5.74c.08-1.1-.27-2.09-1.03-2.86l-.41-.41,.44-1.33,.03-.11c.16-.78-.05-1.55-.57-2.07l-2.37-2.37c-.43-.42-.99-.65-1.55-.65-.24,0-.46,.04-.63,.11l-1.33,.44-.22-.24c-.71-.71-1.66-1.06-2.61-1.06Zm-7.86,8.05l-9.57,9.55c-.76,.76-.78,2.06,0,2.99l7.75,7.72c.88,.88,2.04,1.39,3.26,1.39s2.41-.51,3.29-1.39l7.62-7.64-11.64-11.64c-.29-.29-.52-.63-.71-.98Zm2.58,5.82c.41,0,.83,.09,1.22,.22-2.55,2.74-2.32,6.06-2.31,6.2,.04,.46,.42,.82,.87,.82,.02,0,.06,0,.08,0,.48-.04,.83-.47,.79-.95,0-.03-.2-2.85,2.01-5.06,.03-.03,.05-.07,.08-.11l2.42,2.45c.52,.52,.52,1.3,0,1.82l-4.68,4.71c-.87,.96-2.37,.95-3.24,.08l-3.56-3.56c-.52-.52-.52-1.3,0-1.82l3.75-3.75c.7-.7,1.61-1.03,2.56-1.03Z"/><path class="cls-1" d="M172.62,.45s.07-.06,.11-.1h-38.38V4.81h9.68V25.86h4.46V4.81h19.81l4.32-4.36Z"/></g></g></svg>