<?xml version="1.0" encoding="UTF-8"?><svg id="Layer_2" xmlns="http://www.w3.org/2000/svg" viewBox="0 0 258.76 25.47"><defs><style>.cls-1{fill:#0071bc;}.cls-2{fill:#fff;}</style></defs><g id="Layer_1-2"><path class="cls-2" d="M178.56,19.43c-5.28,0-9.18-4.16-9.18-9.65s3.9-9.26,9.18-9.26h4.6c5.46,0,9.26,3.77,9.26,9.26s-3.87,9.65-9.26,9.65h-4.6Zm4.6-3.3c3.48,0,5.96-2.63,5.96-6.19s-2.47-6.11-5.96-6.11h-4.6c-3.38,0-5.88,2.52-5.88,6.11s2.47,6.19,5.88,6.19h4.6Z"/><path class="cls-2" d="M195.1,19.43v-3.3h14.17c1.77,0,2.76-.99,2.76-2.47,0-1.61-.99-2.44-2.76-2.44h-8.69c-3.56,0-5.77-2.26-5.77-5.38s2.05-5.31,5.83-5.31h13.58V3.82h-13.58c-1.51,0-2.39,.88-2.39,2.31s.91,2.29,2.37,2.29h8.66c3.82,0,5.88,1.79,5.88,5.46,0,3.17-1.92,5.54-5.88,5.54h-14.17Z"/><path class="cls-2" d="M224.04,19.43V3.82h-7.18V.52h17.66V3.82h-7.18v15.6h-3.3Z"/><path class="cls-2" d="M244.9,19.43c-5.28,0-9.18-4.16-9.18-9.65s3.9-9.26,9.18-9.26h4.6c5.46,0,9.26,3.77,9.26,9.26s-3.87,9.65-9.26,9.65h-4.6Zm4.6-3.3c3.48,0,5.96-2.63,5.96-6.19s-2.47-6.11-5.96-6.11h-4.6c-3.38,0-5.88,2.52-5.88,6.11s2.47,6.19,5.88,6.19h4.6Z"/><path class="cls-1" d="M.29,19.17v-3.3H14.46c1.77,0,2.76-.99,2.76-2.47,0-1.61-.99-2.44-2.76-2.44H5.77C2.21,10.95,0,8.69,0,5.57S2.05,.26,5.83,.26h13.58V3.56H5.83c-1.51,0-2.39,.88-2.39,2.31s.91,2.29,2.37,2.29H14.46c3.82,0,5.88,1.79,5.88,5.46,0,3.17-1.92,5.54-5.88,5.54H.29Z"/><path class="cls-1" d="M45.98,19.17l-3.61-13.29-5.36,12.3c-.36,.81-.88,1.25-1.69,1.25s-1.35-.44-1.69-1.25l-5.33-12.3-3.61,13.29h-3.25L26.29,1.38c.23-.91,.75-1.35,1.64-1.35,.7,0,1.35,.39,1.66,1.12l5.83,13.37L41.24,1.14c.31-.73,.88-1.12,1.59-1.12,.81,0,1.33,.44,1.59,1.35l4.84,17.79h-3.28Z"/><path class="cls-1" d="M71.15,19.17l-8.63-14.51-8.58,14.51h-3.77L61.03,1.07c.39-.65,.88-1.07,1.61-1.07s1.2,.42,1.59,1.07l10.9,18.1h-3.98Z"/><path class="cls-1" d="M94.71,19.17l-4.78-5.25h-7.07v-2.91h7.88c2.37,0,3.61-1.35,3.61-3.8s-1.35-3.64-3.61-3.64h-10.3v15.6h-3.28V.26h13.57c4.32,0,6.87,2.68,6.87,6.89,0,3.12-1.46,5.33-3.9,6.27l5.69,5.75h-4.68Z"/><circle class="cls-2" cx="62.64" cy="12.39" r="1.64"/><path class="cls-2" d="M141.58,.52c-1,.08-2.01,.56-2.82,1.37l-2.02,2.04,1.93,1.9,1.45-1.72c.47-.47,1.03-.76,1.55-.81h5.7s0-2.79,0-2.79h-5.81Zm-10.76,2.94c-.71,0-1.43,.26-1.96,.79l-2.44,2.46c-.34,.34-.52,.8-.52,1.27s.18,.91,.52,1.25l8.65,8.65c.34,.34,.79,.52,1.27,.52s.91-.17,1.31-.52l.58-.58c.42-.42,.68-.98,.77-1.65v-.1s-.58-4.25-.58-4.25c.06-.82-.2-1.55-.77-2.12l-.3-.3,.32-.99,.02-.08c.12-.57-.04-1.15-.42-1.53l-1.75-1.75c-.32-.31-.73-.48-1.15-.48-.18,0-.34,.03-.46,.08l-.99,.32-.16-.18c-.53-.53-1.23-.79-1.94-.79Zm-5.83,5.97l-7.1,7.08c-.56,.56-.58,1.53,0,2.22l5.74,5.72c.65,.65,1.51,1.03,2.42,1.03s1.79-.38,2.44-1.03l5.64-5.66-8.63-8.63c-.21-.21-.38-.47-.52-.73Zm1.91,4.31c.3,0,.61,.07,.91,.16-1.89,2.03-1.72,4.49-1.71,4.6,.03,.34,.31,.6,.65,.6,.02,0,.04,0,.06,0,.36-.03,.61-.35,.58-.71,0-.02-.15-2.11,1.49-3.75,.03-.03,.04-.05,.06-.08l1.79,1.81c.39,.39,.39,.96,0,1.35l-3.47,3.49c-.65,.71-1.75,.71-2.4,.06l-2.64-2.64c-.39-.39-.39-.96,0-1.35l2.78-2.78c.52-.52,1.19-.77,1.89-.77Z"/><path class="cls-1" d="M127.94,.33s.05-.05,.08-.07h-28.45V3.56h7.18v15.6h3.3V3.56h14.68l3.2-3.23Z"/><path class="cls-2" d="M153.08,14.17v-3.2h7.59c2.31,0,3.69-1.46,3.69-3.59s-1.38-3.56-3.69-3.56h-10.01v15.6h-3.28V.52h13.29c4.37,0,6.92,2.63,6.92,6.76s-2.55,6.89-6.92,6.89h-7.59Z"/></g></svg>